<svg xmlns="http://www.w3.org/2000/svg" version="1.1" xmlns:xlink="http://www.w3.org/1999/xlink" xmlns:svgjs="http://svgjs.dev/svgjs" width="1440" height="560" preserveAspectRatio="none" viewBox="0 0 1440 560"><g mask="url(&quot;#SvgjsMask1003&quot;)" fill="none"><path d="M 0,470 C 57.6,424.2 172.8,265.4 288,241 C 403.2,216.6 460.8,373.8 576,348 C 691.2,322.2 748.8,86 864,112 C 979.2,138 1036.8,490.6 1152,478 C 1267.2,465.4 1382.4,134.8 1440,49L1440 560L0 560z" fill="rgba(255, 237, 0, 1)"></path><path d="M 0,376 C 96,345.4 288,207.4 480,223 C 672,238.6 768,492.6 960,454 C 1152,415.4 1344,114.8 1440,30L1440 560L0 560z" fill="rgba(82, 171, 34, 1)"></path></g><defs><mask id="SvgjsMask1003"><rect width="1440" height="560" fill="#ffffff"></rect></mask></defs></svg>